<?xml version="1.0" encoding="UTF-8" standalone="no"?>
<!DOCTYPE svg PUBLIC "-//W3C//DTD SVG 1.1//EN" "http://www.w3.org/Graphics/SVG/1.1/DTD/svg11.dtd">
<svg width="100%" height="100%" viewBox="0 0 539 539" version="1.1" xmlns="http://www.w3.org/2000/svg" xmlns:xlink="http://www.w3.org/1999/xlink" xml:space="preserve" xmlns:serif="http://www.serif.com/" style="fill-rule:evenodd;clip-rule:evenodd;stroke-linecap:round;stroke-linejoin:round;stroke-miterlimit:10;">
    <g transform="matrix(1.59703,-3.71483e-32,-3.71483e-32,-1.59703,-31.1417,908.633)">
        <g transform="matrix(1,0,0,1,160.3,534.5)">
            <path d="M0,0L-7.5,-4.3M58,-269.1L65.5,-264.8M22.4,-241.9L29.9,-237.5M-16.6,-191.3L-9.1,-187M85.8,-142.8L85.8,-144.2L85.6,-145.7L85.3,-147.2L84.9,-148.7L84.4,-150.2L83.8,-151.7L83.1,-153.2L82.3,-154.7M82.3,-154.7L69.1,-177.6M69.1,-177.6L68.8,-178.1L68.6,-178.7L68.3,-179.2L68.1,-179.8L68,-180.4L67.9,-180.9L67.8,-181.5L67.8,-182M67.8,-182L67.8,-259.7M60.3,-186.3L60.3,-264M63.8,-174.5L63,-175.9L62.3,-177.4L61.7,-179L61.2,-180.5L60.8,-182L60.5,-183.5L60.3,-184.9L60.3,-186.3M77,-151.6L63.8,-174.5M78.3,-147.2L78.3,-147.7L78.2,-148.2L78,-149.4L77.8,-149.9L77.6,-150.5L77.3,-151.1L77,-151.6M78.3,-66.1L78.3,-147.2M85.8,-61.8L85.8,-142.8M78.3,-66.1L78.2,-64.4L78,-62.6L77.7,-60.7L77.2,-58.8L75.8,-55L74.9,-53.2L73.9,-51.3L72.8,-49.5L71.6,-47.8L70.4,-46.2L69,-44.7L67.7,-43.4L66.2,-42.1L64.8,-41L63.3,-40.1M-11.9,-14.1L-11.9,-95.1M3.2,-5.4L1.7,-4.6L0.2,-4L-1.2,-3.6L-2.6,-3.4L-3.9,-3.3L-5.2,-3.5L-6.4,-3.8L-7.5,-4.3L-8.5,-5L-9.3,-5.9L-10.1,-6.9L-10.7,-8.1L-11.2,-9.4L-11.6,-10.8L-11.8,-12.4L-11.9,-14.1M63.3,-40.1L3.2,-5.4M60.3,-111.3L60.2,-109.9L60,-108.5L59.6,-107.1L59.2,-105.6L58.6,-104.2L57.8,-102.7L57,-101.4L56.1,-100.1L55.1,-98.9L53,-96.8L51.8,-96L50.7,-95.3L48.5,-94.5L47.4,-94.4L46.4,-94.5L45.5,-94.7L44.7,-95.1L44,-95.7L43.4,-96.5L42.9,-97.4L42.5,-98.4L42.3,-99.6L42.2,-100.9L42.3,-102.2L42.5,-103.6L42.9,-105.1L43.4,-106.5L44,-108L44.7,-109.4L45.5,-110.8L46.4,-112.1L47.4,-113.3L48.5,-114.4L49.6,-115.3L50.7,-116.1L51.8,-116.8L53,-117.3L54,-117.6L55.1,-117.7L56.1,-117.6L57,-117.4L57.8,-117L58.6,-116.4L59.2,-115.6L59.6,-114.7L60,-113.7L60.2,-112.5L60.3,-111.3M24.2,-48.8L24.1,-47.4L23.9,-46L23.6,-44.6L23.1,-43.1L22.5,-41.7L21.8,-40.2L20,-37.6L19,-36.4L18,-35.3L16.9,-34.3L15.7,-33.5L14.6,-32.9L13.5,-32.4L12.4,-32.1L11.3,-31.9L10.4,-32L9.4,-32.2L8.6,-32.6L7.9,-33.2L7.3,-34L6.8,-34.9L6.4,-35.9L6.2,-37.1L6.2,-39.7L6.4,-41.1L6.8,-42.6L7.3,-44L7.9,-45.5L8.6,-46.9L9.4,-48.3L10.4,-49.6L11.3,-50.8L12.4,-51.9L13.5,-52.8L14.6,-53.6L15.7,-54.3L16.9,-54.8L18,-55.1L19,-55.2L20,-55.2L20.9,-54.9L21.8,-54.5L22.5,-53.9L23.1,-53.2L23.6,-52.2L23.9,-51.2L24.1,-50L24.2,-48.8M70.8,-35.8L72.3,-36.7L73.7,-37.8L75.2,-39L76.6,-40.4L77.9,-41.9L79.2,-43.5L80.3,-45.2L81.4,-47L82.4,-48.8L83.3,-50.7L84.1,-52.6L84.7,-54.5L85.2,-56.4L85.5,-58.2L85.8,-60.1L85.8,-61.8M70.8,-35.8L10.7,-1M49.8,-96.5L49.8,-97.9L50,-99.3L50.4,-100.7L50.9,-102.2L51.5,-103.6L52.2,-105.1L53,-106.4L53.9,-107.7L54.9,-108.9L56,-110L57.1,-111L58.2,-111.8L59.3,-112.4L60.2,-112.8M49.9,-95L49.8,-95.3L49.8,-96.5M13.7,-34L13.8,-35.4L14,-36.8L14.3,-38.2L14.8,-39.7L15.4,-41.1L16.1,-42.6L17.9,-45.2L18.9,-46.4L19.9,-47.5L21,-48.5L22.1,-49.3L23.3,-50L24.1,-50.3M13.8,-32.5L13.8,-32.8L13.7,-34M-13.2,-99.6L-26.4,-122.4M0,0L1.1,0.5L2.3,0.9L3.6,1L4.9,1L6.3,0.7L7.7,0.3L9.2,-0.3L10.7,-1M-26.4,-122.4L-27.2,-123.9L-27.9,-125.4L-28.5,-126.9L-29,-128.4L-29.4,-129.9L-29.7,-131.4L-29.9,-132.9L-29.9,-134.3M-11.9,-95.1L-11.9,-95.6L-12,-96.2L-12.1,-96.7L-12.2,-97.3L-12.4,-97.9L-12.6,-98.4L-13.2,-99.6M44.6,-255L44.6,-241.1M44.6,-241.1L44.6,-239.7L44.4,-238.2L44,-236.7L43.5,-235.1L42.9,-233.6L42.2,-232.1L41.3,-230.6L40.4,-229.2L39.3,-227.9L38.2,-226.7L37.1,-225.6L35.9,-224.7L34.7,-223.9L33.5,-223.3L32.4,-222.9L31.2,-222.6L30.1,-222.6L29.1,-222.7L28.1,-223L27.3,-223.5L26.6,-224.2L25.9,-225L25.4,-226L25.1,-227.1L24.9,-228.3L24.8,-229.7M24.8,-229.7L24.8,-236.6M24.8,-236.6L24.7,-237.8L24.5,-239L24.1,-240L23.6,-240.8L23,-241.5L22.2,-242L21.4,-242.3L20.4,-242.4L19.4,-242.3L18.3,-242.1L17.2,-241.6L16.1,-241L15,-240.1L14,-239.2L13,-238.1L12,-236.9L11.1,-235.6L10.4,-234.2L9.2,-231.4L8.9,-229.9L8.6,-228.6L8.6,-227.2M8.6,-227.2L5.6,-197.7M5.6,-197.7L5.6,-183.8M5.6,-183.8L5.5,-182.4L5.3,-180.9L4.9,-179.4L4.4,-177.9L3.8,-176.3L3.1,-174.8L2.2,-173.3L1.3,-171.9L0.3,-170.6L-0.8,-169.4L-3.2,-167.4L-5.6,-166L-6.7,-165.6L-7.9,-165.4L-9,-165.3L-10,-165.4L-10.9,-165.7L-11.8,-166.2L-12.5,-166.9L-13.1,-167.7L-13.6,-168.7L-14,-169.8L-14.2,-171L-14.3,-172.4M-14.3,-172.4L-14.3,-186.3M-14.3,-186.3L-14.4,-187.5L-14.6,-188.5L-14.9,-189.5L-15.4,-190.3L-16,-191L-16.8,-191.4L-17.6,-191.7L-18.5,-191.8L-19.5,-191.8L-20.5,-191.5L-21.6,-191.1L-22.6,-190.5L-23.7,-189.7L-25.7,-187.7L-26.6,-186.5L-27.4,-185.3L-28.2,-184L-28.8,-182.6L-29.3,-181.2L-29.6,-179.8L-29.8,-178.5L-29.9,-177.2M60.3,-264L60.2,-265.2L60,-266.3L59.6,-267.3L59.1,-268.1L58.5,-268.7L57.8,-269.2L57,-269.5L56.1,-269.6L55.1,-269.5L54.1,-269.3L53,-268.8L51.9,-268.2L50.9,-267.4L49.8,-266.5L48.9,-265.5L48,-264.3L47.1,-263L46.4,-261.7L45.8,-260.4L45.3,-259L44.9,-257.6L44.7,-256.3L44.6,-255M-29.9,-134.3L-29.9,-177.2M32.6,-223L32.4,-224L32.3,-225.3M67.8,-259.7L67.7,-260.9L67.5,-262L67.2,-262.9L66.7,-263.7L66,-264.4L65.5,-264.8M-6.5,-165.7L-6.7,-166.7L-6.8,-168M32.3,-225.3L32.3,-232.3M32.3,-232.3L32.2,-233.5L32,-234.6L31.6,-235.6L31.1,-236.5L30.5,-237.1L29.9,-237.5M-6.8,-168L-6.8,-181.9M-6.8,-181.9L-6.8,-183.1L-7.1,-184.2L-7.4,-185.2L-7.9,-186L-8.5,-186.6L-9.1,-187" style="fill:none;fill-rule:nonzero;stroke:rgb(102,102,102);stroke-width:1.13px;"/>
        </g>
        <g transform="matrix(0.75,0,0,-0.75,0,612)">
            <path d="M285.05,461.22C280.703,459.173 276.502,453.876 274.635,448.089C274.095,446.415 273.963,444.144 273.765,433.031C273.513,418.984 273.51,418.957 271.391,414.159C269.954,410.905 267.617,407.639 264.736,404.858C260.357,400.631 256.536,398.965 252.808,399.654C250.424,400.095 249.389,400.728 248.181,402.484C246.542,404.866 246.403,405.652 246.167,413.85C245.922,422.336 245.791,422.95 243.826,424.785C243.01,425.547 242.533,425.678 240.654,425.662C238.082,425.64 236.448,424.911 233.865,422.634C229.295,418.605 225.774,411.511 225.729,406.245C225.722,405.413 224.888,396.863 223.876,387.244C222.163,370.956 222.019,368.867 221.783,356.847L221.529,343.94L220.393,340.727C218.649,335.793 216.631,332.528 213.168,329.034C209.182,325.012 205.898,323.276 202.188,323.228C198.607,323.183 196.992,324.199 195.194,327.627C194.364,329.209 194.344,329.479 194.166,341.609C193.999,353.048 193.931,354.085 193.269,355.407C191.175,359.588 186.731,359.397 181.894,354.918C179.535,352.735 177.328,349.697 176.199,347.079C174.502,343.145 174.448,342.018 174.448,310.453C174.448,279.923 174.496,278.759 175.943,274.209C177.074,270.647 178.626,267.735 188.067,251.448C192.866,243.168 197.129,235.667 197.541,234.777C198.288,233.162 198.29,233.03 198.469,175.617L198.648,118.075L199.567,115.717C201.373,111.082 203.966,108.956 208.182,108.655C211.045,108.45 213.263,108.936 216.154,110.401C217.303,110.983 236.732,122.137 259.329,135.187C300.303,158.849 300.424,158.923 303.67,162.026C310.72,168.765 315.931,178.525 317.114,187.205C317.37,189.089 317.496,208.149 317.496,245.317C317.496,291.232 317.412,300.903 317.002,302.264C316.731,303.165 312.024,311.683 306.543,321.192C301.062,330.7 296.189,339.548 295.716,340.852C293.497,346.962 293.679,341.936 293.479,402.557C293.304,455.597 293.268,458.005 292.631,459.286C291.27,462.023 288.343,462.769 285.051,461.218L285.05,461.22ZM291.379,259.7C295.648,256.875 295.779,248.283 291.669,240.571C286.824,231.478 278.826,226.63 273.402,229.498C272.291,230.086 271.549,230.862 270.747,232.277C269.684,234.15 269.634,234.419 269.648,238.183C269.662,241.823 269.761,242.381 270.933,245.417C272.491,249.452 274.105,252.203 276.411,254.749C278.541,257.1 281.963,259.587 284.153,260.377C286.469,261.211 289.528,260.925 291.379,259.7ZM242.094,177.034C246.787,175.265 247.94,167.661 244.731,159.646C240.129,148.154 228.535,141.603 223.463,147.63C221.8,149.607 221.311,151.545 221.493,155.438C221.741,160.728 223.783,165.819 227.545,170.532C229.552,173.046 233.378,176.053 235.575,176.842C237.296,177.46 240.697,177.56 242.094,177.033L242.094,177.034Z" style="fill:rgb(226,226,226);"/>
        </g>
        <g>
            <g transform="matrix(0.75,0,0,-0.75,0,612)">
                <path d="M294.39,458.82C294.563,458.34 294.792,432.941 294.897,402.378L295.089,346.808L296.117,343.761C297.505,339.644 297.62,339.429 308.407,320.733C315.242,308.885 318.017,303.749 318.41,302.215C318.887,300.351 318.938,293.202 318.83,243.681C318.719,193.5 318.642,186.992 318.131,184.759C316.888,179.33 314.259,173.402 310.739,168.088C308.57,164.813 303.627,159.595 301.004,157.811C298.538,156.133 217.939,109.66 215.788,108.676C214.751,108.2 212.745,107.618 211.332,107.382L208.763,106.951L212.142,105.079C216.361,102.742 218.476,102.281 221.627,103.012C222.882,103.303 224.921,104.012 226.157,104.587C230.616,106.663 309.322,152.557 311.943,154.61C317.369,158.86 322.617,166.569 325.337,174.284C327.657,180.863 327.571,178.169 327.455,241.045L327.35,298.049L326.527,300.714C325.208,304.982 323.856,307.575 314.56,323.683C309.723,332.063 305.299,339.807 304.729,340.892L303.693,342.864L303.514,397.538C303.382,437.734 303.225,452.449 302.921,453.108C302.357,454.332 300.469,456.017 298.315,457.22C297.329,457.771 295.972,458.552 295.298,458.957L294.074,459.693L294.39,458.82Z" style="fill:rgb(153,153,153);"/>
            </g>
            <g transform="matrix(0.75,0,0,-0.75,0,612)">
                <path d="M283.73,258.66C279.624,256.647 276.01,252.864 273.579,248.033C269.944,240.81 269.87,234.028 273.394,231.063C274.559,230.083 276.693,229.638 278.246,230.051C279.299,230.332 279.318,230.38 279.548,233.373C279.813,236.815 281.43,241.611 283.467,244.997C285.226,247.92 288.532,251.4 290.993,252.919C292.161,253.64 293.115,254.409 293.111,254.627C293.098,255.512 291.418,257.922 290.28,258.689C288.651,259.787 286.005,259.775 283.73,258.661L283.73,258.66Z" style="fill:rgb(153,153,153);"/>
            </g>
            <g transform="matrix(0.75,0,0,-0.75,0,612)">
                <path d="M236.75,175.83C232.505,174.314 227.964,169.745 225.316,164.323C222.723,159.014 221.97,154.85 222.99,151.46C224.083,147.828 226.393,146.224 229.796,146.734L231.445,146.982L231.451,149.021C231.469,154.898 234.412,161.529 239.202,166.49C241.034,168.388 244.007,170.6 244.724,170.6C245.005,170.6 245.065,170.93 244.903,171.586C243.98,175.33 240.469,177.158 236.75,175.83Z" style="fill:rgb(153,153,153);"/>
            </g>
            <g transform="matrix(0.75,0,0,-0.75,0,612)">
                <path d="M195.16,344.21C195.216,337.949 195.416,331.955 195.606,330.89C196.081,328.223 197.461,325.996 199.183,325.118C200.577,324.407 202.971,324.171 203.669,324.676C203.91,324.85 203.97,329.1 203.848,337.193C203.631,351.621 204.029,350.364 198.667,353.531C196.747,354.665 195.15,355.593 195.118,355.593C195.085,355.593 195.104,350.471 195.16,344.21Z" style="fill:rgb(128,128,128);"/>
            </g>
            <g transform="matrix(0.75,0,0,-0.75,0,612)">
                <path d="M247.05,422.36C247.192,422.015 247.425,418.183 247.568,413.845C247.725,409.036 247.998,405.538 248.266,404.882C249.242,402.497 251.732,400.759 254.177,400.759C256.473,400.759 256.386,400.428 256.189,408.381C255.96,417.663 255.876,417.855 250.691,420.91C248.751,422.053 247.08,422.988 246.978,422.988C246.875,422.988 246.908,422.705 247.05,422.36Z" style="fill:rgb(128,128,128);"/>
            </g>
        </g>
    </g>
</svg>
